<svg width="242" height="94" viewBox="0 0 242 94" fill="none" xmlns="http://www.w3.org/2000/svg">
<g clip-path="url(#clip0_3136_300)">
<g filter="url(#filter0_d_3136_300)">
<path d="M114 48.4679V14.1023H127.642C130.091 14.1023 132.142 14.4658 133.792 15.193C135.454 15.9201 136.7 16.9381 137.53 18.2469C138.371 19.5558 138.792 21.0716 138.792 22.7943C138.792 24.1032 138.531 25.2722 138.009 26.3014C137.488 27.3194 136.769 28.164 135.853 28.8352C134.937 29.5064 133.877 29.9762 132.674 30.2447V30.5803C133.995 30.6474 135.214 31.0222 136.332 31.7046C137.461 32.387 138.366 33.3378 139.048 34.5572C139.729 35.7654 140.07 37.1973 140.07 38.8529C140.07 40.6987 139.623 42.3487 138.728 43.803C137.834 45.2461 136.54 46.3872 134.846 47.2262C133.153 48.054 131.098 48.4679 128.68 48.4679H114ZM121.907 41.7726H126.795C128.51 41.7726 129.772 41.4314 130.581 40.749C131.401 40.0667 131.811 39.1158 131.811 37.8964C131.811 37.0127 131.614 36.252 131.22 35.6143C130.826 34.9655 130.267 34.4677 129.543 34.1209C128.819 33.7629 127.951 33.5839 126.939 33.5839H121.907V41.7726ZM121.907 28.2311H126.284C127.147 28.2311 127.914 28.0801 128.585 27.778C129.255 27.476 129.777 27.0397 130.15 26.4692C130.533 25.8987 130.725 25.2107 130.725 24.4052C130.725 23.253 130.336 22.3469 129.559 21.6869C128.782 21.0268 127.733 20.6968 126.412 20.6968H121.907V28.2311Z" fill="#111827"/>
<path d="M150.949 48.4679H142.45L153.489 14.1023H164.016L175.054 48.4679H166.556L158.872 22.7608H158.616L150.949 48.4679ZM149.814 34.9431H167.578V41.2524H149.814V34.9431Z" fill="#111827"/>
<path d="M178.576 48.4679V14.1023H192.09C194.54 14.1023 196.654 14.5665 198.432 15.495C200.221 16.4123 201.601 17.7323 202.57 19.4551C203.539 21.1667 204.023 23.1971 204.023 25.5463C204.023 27.929 203.528 29.9538 202.538 31.6207C201.547 33.2763 200.142 34.5404 198.32 35.413C196.499 36.2744 194.343 36.705 191.851 36.705H183.305V30.1608H190.381C191.574 30.1608 192.57 29.9986 193.368 29.6742C194.178 29.3386 194.79 28.8352 195.205 28.164C195.621 27.4816 195.828 26.609 195.828 25.5463C195.828 24.4835 195.621 23.6054 195.205 22.9118C194.79 22.207 194.178 21.6813 193.368 21.3345C192.559 20.9765 191.563 20.7975 190.381 20.7975H186.483V48.4679H178.576ZM196.995 32.7617L205.141 48.4679H196.515L188.528 32.7617H196.995Z" fill="#111827"/>
<path d="M208.36 48.4679V14.1023H216.268V28.6338H216.699L227.514 14.1023H236.827L225.229 29.4393L237.034 48.4679H227.577L219.431 34.9599L216.268 39.1549V48.4679H208.36Z" fill="#111827"/>
<path fill-rule="evenodd" clip-rule="evenodd" d="M62.5464 38.6972L62.7269 41.8922L59.3549 40.498L62.5464 38.6972ZM70.788 21.7889C70.788 21.7889 75.6472 28.4628 63.0644 24.4651C63.0644 24.4651 65.8112 21.5043 70.788 21.7889ZM64.1981 32.6517C68.216 37.3501 67.5617 45.1792 67.5617 45.1792C66.5031 43.5191 63.6679 42.2668 63.6679 42.2668C64.9135 36.6921 64.1981 32.6517 64.1981 32.6517ZM73.4785 38.7424L68.9013 44.944L68.6361 38.5382L73.4785 38.7424ZM73.093 41.2997L74.2061 50.0109L69.252 46.0565L73.093 41.2997ZM79.8004 40.8412C79.3022 47.9812 74.3809 52.8677 74.3809 52.8677C76.3128 46.0074 74.8791 38.9619 74.8791 38.9619L79.8004 40.8412ZM42.7063 38.6962L42.5267 41.8913L45.8988 40.4971L42.7063 38.6962ZM34.4648 21.7879C34.4648 21.7879 29.6056 28.4621 42.1885 24.4641C42.1885 24.4641 39.4415 21.5033 34.4648 21.7879ZM41.0556 32.6509C37.0377 37.3489 37.692 45.1784 37.692 45.1784C38.7506 43.5184 41.5848 42.2656 41.5848 42.2656C40.3392 36.6911 41.0556 32.6509 41.0556 32.6509ZM31.7742 38.7415L36.3524 44.943L36.6174 38.5374L31.7742 38.7415ZM32.1598 41.2987L31.0457 50.01L35.9998 46.0556L32.1598 41.2987ZM25.4523 40.8402C25.9505 47.9803 30.8718 52.8668 30.8718 52.8668C28.9409 46.0064 30.3736 38.9608 30.3736 38.9608L25.4523 40.8402ZM52.627 16.7728C52.627 16.7728 66.8584 0.737242 77.0734 12.1379C83.8559 -1.42286 89.9633 25.0899 92.1483 26.3567C82.2257 23.9479 80.0054 4.25386 61.5641 17.1492C79.7798 8.24984 80.1784 24.6532 84.3618 28.7371C84.3618 28.7371 79.3002 26.2158 73.8197 27.3124C73.8197 27.3124 75.1593 23.617 72.7611 20.767C72.7611 20.767 76.0937 20.7357 77.6505 22.9592C74.5181 5.35612 59.1717 31.0437 55.9735 20.109C55.9735 20.109 55.008 22.8023 55.7865 24.6815C55.7865 24.6815 53.3601 22.6142 52.627 17.5093C51.8936 22.6142 49.4662 24.6815 49.4662 24.6815C50.2457 22.8023 49.2792 20.109 49.2792 20.109C46.0811 31.0437 30.7356 5.35612 27.6032 22.9592C29.1609 20.7357 32.4934 20.767 32.4934 20.767C30.0952 23.617 31.4348 27.3124 31.4348 27.3124C25.9535 26.2168 20.8929 28.7371 20.8929 28.7371C25.0774 24.6532 25.4739 8.24984 43.6906 17.1492C25.2483 4.25386 23.028 23.9479 13.1064 26.3567C15.2911 25.0891 21.3969 -1.42286 28.1813 12.1379C38.3969 0.737242 52.627 16.7728 52.627 16.7728ZM62.6227 7.56444C62.6227 7.56444 56.8327 6.81284 52.627 11.1348C48.421 6.81284 42.631 7.56444 42.631 7.56444C46.1968 3.91442 59.0569 3.91442 62.6227 7.56444ZM96.2939 44.0146C100.984 37.5494 96.9265 33.98 94.5989 32.5979C97.8488 32.5355 100.376 30.8064 101.253 27.6707C90.663 26.7623 94.207 -5.10886 76.2725 6.08584C75.0276 1.1257 67.0617 3.68378 65.8338 4.11015C58.848 -1.15065 46.4007 -1.15065 39.416 4.11015C38.1893 3.68378 30.2232 1.1257 28.9776 6.08584C11.045 -5.10683 14.589 26.7642 4 27.6726C4.87718 30.8083 7.40398 32.5373 10.6529 32.5997C8.32713 33.9818 4.26884 37.5513 8.95784 44.0166C-18.4272 99.1 123.68 99.1 96.2939 44.0166V44.0146ZM92.6304 47.3252C92.6304 47.3252 95.9329 61.4816 82.977 70.501C82.977 70.501 85.6552 62.4213 81.5433 56.2822C81.5433 56.2822 83.9725 67.5563 69.3967 78.3312C69.3967 78.3312 74.2559 73.6952 73.7567 66.1791C70.0961 84.8937 35.1549 84.8937 31.4941 66.1791C30.9959 73.6952 35.8541 78.3312 35.8541 78.3312C21.2775 67.5563 23.7075 56.2822 23.7075 56.2822C19.5965 62.4213 22.2749 70.501 22.2749 70.501C9.31889 61.4806 12.6214 47.3252 12.6214 47.3252C14.8015 51.3967 18.414 52.3988 18.414 52.3988C2.63123 32.6772 19.733 31.4606 39.717 30.0048C36.5405 28.4071 33.8933 28.7843 33.8933 28.7843C37.9572 26.8171 44.8816 24.018 48.562 27.719C48.562 27.719 44.5121 27.8437 43.6408 31.7271C43.7611 31.8378 55.0701 39.5574 50.1817 39.5574L48.2818 38.5554L46.8802 39.651C46.8802 39.651 44.8862 38.0845 42.3332 37.0201C42.3332 37.0201 41.6479 32.4163 42.5824 29.6598C42.5824 29.6598 39.5918 30.8499 37.91 35.8612C37.91 35.8612 30.934 33.1045 21.1542 36.9879C21.1542 36.9879 17.7287 48.8263 32.8028 59.7262C33.0443 38.0589 72.2075 38.0589 72.45 59.7262C87.524 48.8273 84.0976 36.9879 84.0976 36.9879C74.3179 33.1045 67.3417 35.8612 67.3417 35.8612C65.66 30.8499 62.6695 29.6598 62.6695 29.6598C63.6039 32.4163 62.9188 37.0201 62.9188 37.0201C60.3644 38.0845 58.3716 39.651 58.3716 39.651L56.97 38.5554L55.0701 39.5574C50.1817 39.5574 61.4908 31.8378 61.6102 31.7271C60.7377 27.8437 56.6889 27.719 56.6889 27.719C60.37 24.018 67.2946 26.8171 71.3588 28.7843C71.3588 28.7843 68.7114 28.408 65.5349 30.0048C85.5188 31.4606 102.621 32.6772 86.8387 52.3988C86.8387 52.3988 90.4503 51.3967 92.6304 47.3252Z" fill="#111827"/>
<path d="M65.6667 24.5971C66.5872 24.5971 67.3334 23.8509 67.3334 22.9304C67.3334 22.0099 66.5872 21.2637 65.6667 21.2637C64.7462 21.2637 64 22.0099 64 22.9304C64 23.8509 64.7462 24.5971 65.6667 24.5971Z" fill="#111827"/>
<path d="M39 24.5971C39.9205 24.5971 40.6665 23.8509 40.6665 22.9304C40.6665 22.0099 39.9205 21.2637 39 21.2637C38.0795 21.2637 37.3333 22.0099 37.3333 22.9304C37.3333 23.8509 38.0795 24.5971 39 24.5971Z" fill="#111827"/>
</g>
<path d="M116.039 71.8703H115V63.053H117.829C118.26 63.053 118.649 63.0982 118.997 63.1886C119.346 63.279 119.655 63.4165 119.925 63.6012C120.195 63.7859 120.404 64.0334 120.553 64.3438C120.702 64.6542 120.776 65.0157 120.776 65.4283C120.776 65.7701 120.745 66.0766 120.682 66.3477C120.62 66.6149 120.512 66.8664 120.359 67.1022C120.207 67.3379 120.007 67.5344 119.761 67.6916C119.514 67.8448 119.197 67.9666 118.81 68.057C118.426 68.1434 117.98 68.1866 117.471 68.1866C117.068 68.1866 116.591 68.1611 116.039 68.11V71.8703ZM117.571 67.2849C117.955 67.2849 118.283 67.2475 118.557 67.1729C118.831 67.0982 119.041 67.0059 119.185 66.8959C119.334 66.7859 119.449 66.6424 119.532 66.4656C119.618 66.2888 119.671 66.1277 119.69 65.9823C119.71 65.833 119.719 65.6542 119.719 65.446C119.719 64.947 119.551 64.5796 119.215 64.3438C118.882 64.1081 118.428 63.9902 117.853 63.9902H116.039V67.2731C116.794 67.2809 117.305 67.2849 117.571 67.2849Z" fill="#111827"/>
<path d="M131.39 63.9666V66.9136C131.55 66.9136 131.881 66.9175 132.382 66.9253C132.886 66.9332 133.276 66.9371 133.55 66.9371C134.297 66.9371 134.818 66.8134 135.111 66.5658C135.405 66.3143 135.551 65.9175 135.551 65.3752C135.551 64.8998 135.411 64.5462 135.129 64.3143C134.847 64.0825 134.375 63.9666 133.714 63.9666H131.39ZM136.954 71.8703H135.78L134.583 69.1356C134.258 68.4008 134.051 67.9587 133.961 67.8094C133.675 67.8291 133.336 67.8389 132.945 67.8389L131.39 67.7917V71.8703H130.351V63.053H133.127C133.448 63.053 133.732 63.0609 133.978 63.0766C134.225 63.0923 134.469 63.1218 134.712 63.165C134.959 63.2043 135.172 63.2613 135.352 63.336C135.532 63.4067 135.7 63.501 135.857 63.6189C136.013 63.7328 136.138 63.8703 136.232 64.0314C136.33 64.1925 136.406 64.3851 136.461 64.609C136.516 64.8291 136.543 65.0786 136.543 65.3576C136.543 65.9077 136.399 66.3811 136.109 66.778C135.823 67.1749 135.416 67.4499 134.888 67.6031C134.888 67.611 134.927 67.6817 135.006 67.8153C135.084 67.9489 135.176 68.1139 135.281 68.3104C135.391 68.5029 135.475 68.664 135.534 68.7937L136.954 71.8703Z" fill="#111827"/>
<path d="M147.627 67.5147C147.627 68.6346 147.883 69.5147 148.396 70.1552C148.908 70.7917 149.665 71.11 150.667 71.11C151.669 71.11 152.422 70.7917 152.927 70.1552C153.436 69.5187 153.69 68.6385 153.69 67.5147C153.69 66.3674 153.434 65.4774 152.921 64.8448C152.413 64.2122 151.663 63.8959 150.673 63.8959C149.683 63.8959 148.928 64.2122 148.407 64.8448C147.887 65.4774 147.627 66.3674 147.627 67.5147ZM154.776 67.5147C154.776 68.1788 154.684 68.7859 154.5 69.336C154.32 69.8861 154.058 70.3595 153.714 70.7564C153.373 71.1493 152.943 71.4558 152.422 71.6758C151.902 71.8919 151.317 72 150.667 72C149.791 72 149.039 71.8134 148.413 71.4401C147.791 71.0629 147.323 70.5403 147.01 69.8723C146.701 69.2004 146.546 68.4126 146.546 67.5088C146.546 66.1139 146.908 65.0138 147.632 64.2083C148.356 63.4028 149.37 63 150.673 63C151.957 63 152.96 63.4067 153.684 64.22C154.412 65.0295 154.776 66.1277 154.776 67.5147Z" fill="#111827"/>
<path d="M167.702 71.8703H166.681V64.055H164.01V63.1532H170.373V64.055H167.702V71.8703Z" fill="#111827"/>
<path d="M180.605 67.5147C180.605 68.6346 180.862 69.5147 181.374 70.1552C181.887 70.7917 182.644 71.11 183.646 71.11C184.648 71.11 185.401 70.7917 185.906 70.1552C186.415 69.5187 186.669 68.6385 186.669 67.5147C186.669 66.3674 186.413 65.4774 185.9 64.8448C185.391 64.2122 184.642 63.8959 183.652 63.8959C182.662 63.8959 181.906 64.2122 181.386 64.8448C180.866 65.4774 180.605 66.3674 180.605 67.5147ZM187.755 67.5147C187.755 68.1788 187.663 68.7859 187.479 69.336C187.299 69.8861 187.037 70.3595 186.692 70.7564C186.352 71.1493 185.922 71.4558 185.401 71.6758C184.881 71.8919 184.296 72 183.646 72C182.769 72 182.018 71.8134 181.392 71.4401C180.77 71.0629 180.302 70.5403 179.989 69.8723C179.68 69.2004 179.525 68.4126 179.525 67.5088C179.525 66.1139 179.887 65.0138 180.611 64.2083C181.335 63.4028 182.349 63 183.652 63C184.935 63 185.939 63.4067 186.663 64.22C187.391 65.0295 187.755 66.1277 187.755 67.5147Z" fill="#111827"/>
<path d="M201.779 63.9018C201.125 63.9018 200.562 64.0609 200.088 64.3792C199.619 64.6974 199.269 65.1257 199.038 65.664C198.807 66.2024 198.691 66.8212 198.691 67.5206C198.691 68.0432 198.754 68.5206 198.879 68.9528C199.004 69.3811 199.192 69.7583 199.443 70.0845C199.693 70.4067 200.018 70.6582 200.417 70.8389C200.82 71.0157 201.282 71.1041 201.802 71.1041C202.472 71.1041 203.164 70.9293 203.88 70.5796L204.051 71.446C203.468 71.8153 202.679 72 201.685 72C201.031 72 200.444 71.8919 199.924 71.6758C199.407 71.4558 198.979 71.1473 198.638 70.7505C198.302 70.3497 198.046 69.8743 197.869 69.3242C197.693 68.7701 197.605 68.1552 197.605 67.4794C197.605 66.8271 197.701 66.2259 197.893 65.6758C198.085 65.1257 198.355 64.6542 198.703 64.2613C199.055 63.8644 199.494 63.556 200.018 63.336C200.542 63.1159 201.125 63.0059 201.767 63.0059C202.742 63.0059 203.563 63.222 204.233 63.6542L203.833 64.4853C203.192 64.0963 202.507 63.9018 201.779 63.9018Z" fill="#111827"/>
<path d="M214.793 67.5147C214.793 68.6346 215.05 69.5147 215.562 70.1552C216.075 70.7917 216.832 71.11 217.834 71.11C218.836 71.11 219.589 70.7917 220.094 70.1552C220.603 69.5187 220.857 68.6385 220.857 67.5147C220.857 66.3674 220.601 65.4774 220.088 64.8448C219.579 64.2122 218.83 63.8959 217.84 63.8959C216.85 63.8959 216.094 64.2122 215.574 64.8448C215.053 65.4774 214.793 66.3674 214.793 67.5147ZM221.943 67.5147C221.943 68.1788 221.851 68.7859 221.667 69.336C221.487 69.8861 221.225 70.3595 220.88 70.7564C220.54 71.1493 220.11 71.4558 219.589 71.6758C219.069 71.8919 218.484 72 217.834 72C216.957 72 216.206 71.8134 215.58 71.4401C214.958 71.0629 214.49 70.5403 214.177 69.8723C213.868 69.2004 213.713 68.4126 213.713 67.5088C213.713 66.1139 214.075 65.0138 214.799 64.2083C215.523 63.4028 216.537 63 217.84 63C219.123 63 220.127 63.4067 220.851 64.22C221.579 65.0295 221.943 66.1277 221.943 67.5147Z" fill="#111827"/>
<path d="M232.157 71.8703V63.1532H233.179V70.9627H237L236.965 71.8703H232.157Z" fill="#111827"/>
</g>
<defs>
<filter id="filter0_d_3136_300" x="0" y="0.164551" width="241.034" height="93.1646" filterUnits="userSpaceOnUse" color-interpolation-filters="sRGB">
<feFlood flood-opacity="0" result="BackgroundImageFix"/>
<feColorMatrix in="SourceAlpha" type="matrix" values="0 0 0 0 0 0 0 0 0 0 0 0 0 0 0 0 0 0 127 0" result="hardAlpha"/>
<feOffset dy="4"/>
<feGaussianBlur stdDeviation="2"/>
<feComposite in2="hardAlpha" operator="out"/>
<feColorMatrix type="matrix" values="0 0 0 0 0.0627279 0 0 0 0 0.0627279 0 0 0 0 0.0627279 0 0 0 0.02 0"/>
<feBlend mode="normal" in2="BackgroundImageFix" result="effect1_dropShadow_3136_300"/>
<feBlend mode="normal" in="SourceGraphic" in2="effect1_dropShadow_3136_300" result="shape"/>
</filter>
<clipPath id="clip0_3136_300">
<rect width="242" height="94" fill="white"/>
</clipPath>
</defs>
</svg>
